HIERARCHY
ROOT Hips
{
	OFFSET 0.000000 8.830580 0.000000
	CHANNELS 6 Xposition Yposition Zposition Zrotation Yrotation Xrotation 
	JOINT Spine
	{
		OFFSET 0.000000 0.010000 0.000000
		CHANNELS 3 Zrotation Yrotation Xrotation
		JOINT Spine1
		{
			OFFSET 0.000000 2.459130 0.000000
			CHANNELS 3 Zrotation Yrotation Xrotation
			JOINT Neck
			{
				OFFSET 0.000000 2.484630 0.000000
				CHANNELS 3 Zrotation Yrotation Xrotation
				JOINT Head_virtual
				{
					OFFSET 0.000000 0.000000 0.000000
					CHANNELS 3 Zrotation Yrotation Xrotation
					JOINT Head
					{
						OFFSET 0.000000 0.927525 0.000000
						CHANNELS 3 Zrotation Yrotation Xrotation
						End Site
						{
							OFFSET 0.000000 0.000000 0.000000
						}
					}
				}
				JOINT LeftUpArm_virtual
				{
					OFFSET 0.000000 0.000000 0.000000
					CHANNELS 3 Zrotation Yrotation Xrotation
					JOINT LeftUpArm
					{
						OFFSET 1.248820 0.000000 0.000000
						CHANNELS 3 Zrotation Yrotation Xrotation
						JOINT LeftForeArm
						{
							OFFSET 2.597580 0.000000 0.000000
							CHANNELS 3 Zrotation Yrotation Xrotation
							JOINT LeftHand
							{
								OFFSET 2.455420 0.000000 0.000000
								CHANNELS 3 Zrotation Yrotation Xrotation
								End Site
								{
									OFFSET 0.000000 0.000000 0.000000
								}
							}
						}
					}
				}
				JOINT RightUpArm_virtual
				{
					OFFSET -0.000000 -0.000000 -0.000000
					CHANNELS 3 Zrotation Yrotation Xrotation
					JOINT RightUpArm
					{
						OFFSET -1.248820 -0.000000 -0.000000
						CHANNELS 3 Zrotation Yrotation Xrotation
						JOINT RightForeArm
						{
							OFFSET -2.597580 -0.000000 -0.000000
							CHANNELS 3 Zrotation Yrotation Xrotation
							JOINT RightHand
							{
								OFFSET -2.455420 -0.000000 -0.000000
								CHANNELS 3 Zrotation Yrotation Xrotation
								End Site
								{
									OFFSET 0.000000 0.000000 0.000000
								}
							}
						}
					}
				}
			}
		}
	}
	JOINT LeftUpLeg
	{
		OFFSET 1.271939 0.000000 0.000000
		CHANNELS 3 Zrotation Yrotation Xrotation
		JOINT LeftLowLeg
		{
			OFFSET 0.000000 -4.342910 0.000000
			CHANNELS 3 Zrotation Yrotation Xrotation
			JOINT LeftFoot
			{
				OFFSET 0.000000 -4.487670 0.000000
				CHANNELS 3 Zrotation Yrotation Xrotation
				JOINT LeftToeBase
				{
					OFFSET 0.000000 0.000000 1.515070
					CHANNELS 3 Zrotation Yrotation Xrotation
					End Site
					{
						OFFSET 0.000000 0.000000 0.000000
					}
				}
			}
		}
	}
	JOINT RightUpLeg
	{
		OFFSET -1.271939 0.000000 0.000000
		CHANNELS 3 Zrotation Yrotation Xrotation
		JOINT RightLowLeg
		{
			OFFSET 0.000000 -4.342910 0.000000
			CHANNELS 3 Zrotation Yrotation Xrotation
			JOINT RightFoot
			{
				OFFSET 0.000000 -4.487670 0.000000
				CHANNELS 3 Zrotation Yrotation Xrotation
				JOINT RightToeBase
				{
					OFFSET 0.000000 0.000000 1.515070
					CHANNELS 3 Zrotation Yrotation Xrotation
					End Site
					{
						OFFSET 0.000000 0.000000 0.000000
					}
				}
			}
		}
	}
}
MOTION
Frames: 10
Frame Time: 0.041667
-21.618866 9.688243 27.154612 -165.593365 51.546396 -164.931101 -8.151496 5.524914 -16.245946 9.944385 -19.769373 39.905957 0.000000 0.000000 0.000000 32.477169 -46.025202 -25.519798 24.612867 37.654089 -53.754040 -39.869701 -6.226110 21.984200 -17.151400 -12.773300 -0.567993 0.000000 -22.622601 0.000000 -1.543070 6.129010 7.174520 20.737000 -3.495660 -8.115920 46.289200 -7.168000 27.134501 0.000000 22.151100 0.000000 3.916400 -5.489890 0.564775 2.810807 31.326220 -1.086868 0.000000 0.000000 -3.038130 -2.204107 14.646120 10.867856 0.000000 0.000000 -13.260340 2.247378 5.290787 -9.355022 0.000000 0.000000 13.661800 17.402783 -19.953588 14.545425 0.000000 0.000000 -22.888640 
-21.612396 9.683962 27.166751 -165.381382 53.106613 -165.176293 -8.014183 5.553255 -16.248455 9.607716 -19.912188 39.786428 0.000000 0.000000 0.000000 31.352328 -45.944927 -24.890932 24.544670 37.508296 -53.540628 -39.895401 -6.369000 21.910101 -16.724600 -13.166000 -1.790009 0.000000 -21.523800 0.000000 -0.716765 6.290690 8.075010 21.017300 -3.496100 -8.460740 45.432499 -6.391630 25.599501 0.000000 22.250200 0.000000 2.724060 -5.100850 0.434111 3.100231 32.355314 -0.268623 0.000000 0.000000 -2.960000 -2.494401 14.884330 10.691155 0.000000 0.000000 -12.408830 2.293252 3.733348 -8.241090 0.000000 0.000000 15.102900 16.259340 -20.851692 13.722576 0.000000 0.000000 -23.006330 
-21.596530 9.679820 27.174735 -165.169092 54.672166 -165.628167 -7.906757 5.533077 -16.214417 9.540540 -19.984096 39.689360 0.000000 0.000000 0.000000 30.173314 -45.931999 -24.428709 24.544208 37.166940 -53.244333 -40.160400 -6.372140 21.598600 -16.132700 -13.560100 -2.839996 0.000000 -20.841499 0.000000 -0.012811 6.466410 8.653080 21.123400 -3.584870 -8.872600 44.696999 -5.609200 23.770399 0.000000 22.619101 0.000000 1.213660 -4.701840 -0.125060 3.592493 33.246430 0.917922 0.000000 0.000000 -2.936610 -2.811575 15.285183 10.497437 0.000000 0.000000 -11.729170 2.221133 1.802255 -6.732196 0.000000 0.000000 16.081200 14.624519 -21.363961 13.502334 0.000000 0.000000 -23.668230 
-21.580926 9.675979 27.182220 -165.070613 56.127527 -166.019940 -7.587514 5.886901 -16.534682 8.809526 -20.203980 40.083512 0.000000 0.000000 0.000000 29.677490 -45.752592 -24.435601 24.529086 36.991665 -52.790341 -39.988201 -6.237270 20.990999 -15.461900 -14.173700 -3.493988 0.000000 -20.653700 0.000000 0.819524 6.584660 8.963460 21.520599 -3.649930 -9.414500 44.098202 -4.715210 21.873199 0.000000 23.229099 0.000000 -0.224783 -4.198660 -0.588766 3.943669 34.141332 1.869203 0.000000 0.000000 -2.846680 -3.092296 15.602746 10.365458 0.000000 0.000000 -11.312930 1.942885 -0.716060 -5.257952 0.000000 0.000000 16.663700 13.952488 -21.281661 12.928179 0.000000 0.000000 -23.701180 
-21.562811 9.674296 27.190876 -165.012165 57.539346 -166.346256 -7.120011 6.530739 -17.128446 7.548080 -20.530975 40.880168 0.000000 0.000000 0.000000 29.733893 -45.462083 -24.689253 24.484589 37.006525 -52.294644 -39.606602 -5.949440 20.734600 -14.552200 -14.968800 -4.752991 0.000000 -21.007601 0.000000 1.911010 6.586930 9.089640 22.145599 -3.490220 -9.852610 43.509899 -3.814440 20.169399 0.000000 24.325300 0.000000 -1.711080 -3.971170 -1.636330 4.242722 34.872738 2.654597 0.000000 0.000000 -2.635700 -3.361700 16.040171 10.253594 0.000000 0.000000 -11.112790 1.506832 -3.687768 -3.834692 0.000000 0.000000 16.935301 13.727188 -21.125625 12.405692 0.000000 0.000000 -23.808040 
-21.546208 9.672776 27.206111 -164.921787 58.909349 -166.434890 -6.677109 7.185292 -17.764802 6.470404 -20.752007 41.459768 0.000000 0.000000 0.000000 29.983471 -45.248950 -24.889232 24.239879 37.148346 -52.031507 -39.275002 -5.649690 19.155199 -13.921900 -15.366900 -4.346985 0.000000 -21.831600 0.000000 3.141710 6.463570 8.395950 22.690100 -3.225840 -10.031100 42.967300 -2.932590 18.681999 0.000000 25.695801 0.000000 -3.379470 -3.460610 -2.700930 4.434244 35.683634 3.080616 0.000000 0.000000 -2.284600 -3.688252 16.395984 10.058965 0.000000 0.000000 -10.914970 1.042540 -6.477028 -2.676244 0.000000 0.000000 17.025000 13.980118 -21.514955 11.720142 0.000000 0.000000 -23.706670 
-21.526474 9.672949 27.228422 -164.778793 60.283132 -166.442730 -6.418838 7.632204 -18.371184 5.917109 -20.839001 41.920449 0.000000 0.000000 0.000000 30.234752 -45.068511 -25.238693 23.965974 37.216023 -51.757391 -38.940601 -5.577560 18.719299 -13.373400 -15.803300 -5.192993 0.000000 -23.082001 0.000000 4.588290 6.197420 7.214680 22.944099 -2.921130 -10.041800 42.396599 -2.023760 17.798000 0.000000 27.341101 0.000000 -5.081100 -2.713810 -4.419340 4.689255 36.337491 3.453024 0.000000 0.000000 -1.871030 -4.110100 16.830168 9.865606 0.000000 0.000000 -10.818550 0.612679 -8.641611 -1.365798 0.000000 0.000000 16.449400 14.361362 -22.606688 11.162047 0.000000 0.000000 -23.794500 
-21.503938 9.672610 27.257369 -164.547610 61.600236 -166.478821 -6.481221 7.674535 -18.778508 6.692578 -20.511833 41.654542 0.000000 0.000000 0.000000 29.722700 -45.417415 -24.817249 23.702622 36.798555 -51.726518 -38.096100 -7.354880 20.211100 -14.471000 -14.971400 -8.683014 0.000000 -24.986700 0.000000 5.818730 5.893040 7.624090 22.367599 -2.732560 -9.847640 42.136002 -1.492790 16.853300 0.000000 29.469900 0.000000 -6.908370 -3.022350 -5.736750 5.114841 37.135770 4.019406 0.000000 0.000000 -1.596500 -4.454398 17.130563 9.763801 0.000000 0.000000 -10.774080 0.237113 -11.079172 -0.278667 0.000000 0.000000 16.195700 13.462048 -23.847774 11.233512 0.000000 0.000000 -23.833890 
-21.487217 9.671918 27.299125 -164.332667 62.894755 -166.121940 -6.517077 7.655353 -19.170742 7.196477 -20.333662 41.403796 0.000000 0.000000 0.000000 29.858580 -45.399488 -25.123573 23.369774 36.758901 -51.631999 -39.001301 -6.774150 20.086300 -12.512800 -15.642000 -8.747009 0.000000 -26.634701 0.000000 5.839130 5.914640 7.281540 22.271601 -2.739680 -9.964610 41.484600 -0.471286 16.817101 0.000000 31.411501 0.000000 -8.445560 -2.370760 -6.077570 5.241029 37.791387 3.965064 0.000000 0.000000 -1.214250 -4.906707 17.488218 9.613073 0.000000 0.000000 -10.744800 0.066590 -12.353139 0.297501 0.000000 0.000000 15.794600 12.318246 -25.466351 11.549977 0.000000 0.000000 -23.785200 
-21.463501 9.668591 27.350852 -163.989875 64.322300 -165.711825 -6.673386 7.713960 -19.580727 7.895670 -19.938562 40.916206 0.000000 0.000000 0.000000 29.452749 -45.583301 -24.528851 23.108699 36.559898 -51.547873 -38.439400 -7.427470 19.872299 -13.140500 -15.294400 -9.447998 0.000000 -28.641100 0.000000 6.709200 5.602860 7.570620 21.973900 -2.631840 -9.787680 40.903999 0.326657 17.092699 0.000000 33.520000 0.000000 -9.877160 -1.904640 -6.250850 5.530761 38.765028 4.200855 0.000000 0.000000 -1.133290 -5.238094 17.774879 9.599420 0.000000 0.000000 -10.701790 0.077829 -12.656242 0.716444 0.000000 0.000000 15.545100 11.140358 -26.874928 12.116858 0.000000 0.000000 -23.929430 
